<svg xmlns="http://www.w3.org/2000/svg" version="1.1" xmlns:xlink="http://www.w3.org/1999/xlink" xmlns:svgjs="http://svgjs.com/svgjs" width="500" height="800" preserveAspectRatio="none" viewBox="0 0 500 800"><g mask="url(&quot;#SvgjsMask1009&quot;)" fill="none"><rect width="500" height="800" x="0" y="0" fill="#0e2a47"></rect><path d="M397.923,543.827C418.307,543.033,432.238,525.728,442.428,508.056C452.605,490.407,461.125,469.396,451.052,451.687C440.903,433.844,418.441,429.199,397.923,429.812C378.646,430.388,360.204,438.325,350.023,454.705C339.245,472.045,337.314,493.789,346.98,511.773C357.16,530.714,376.436,544.664,397.923,543.827" fill="rgba(28, 83, 142, 0.4)" class="triangle-float3"></path><path d="M467.5244092461414-11.030963727828826L328.0578925499043 18.61355952921808 357.7024158069512 158.08007622545517 497.1689325031883 128.43555296840827z" fill="rgba(28, 83, 142, 0.4)" class="triangle-float3"></path><path d="M326.26,567.325C361.854,565.491,392.507,545.052,410.904,514.526C429.997,482.844,439.742,442.829,420.224,411.407C401.441,381.169,361.854,377.832,326.26,378.261C291.676,378.678,255.862,385.213,236.14,413.626C213.521,446.213,204.966,489.883,225.03,524.102C244.921,558.026,286.987,569.348,326.26,567.325" fill="rgba(28, 83, 142, 0.4)" class="triangle-float2"></path><path d="M390.385,694.38C416.334,693.601,442.967,686.167,456.364,663.93C470.135,641.071,468.117,611.739,453.699,589.283C440.327,568.456,415.118,562.077,390.385,561.169C363.414,560.179,333.723,562.051,318.476,584.321C301.563,609.024,300.794,643.046,317.169,668.109C332.37,691.374,362.607,695.214,390.385,694.38" fill="rgba(28, 83, 142, 0.4)" class="triangle-float1"></path><path d="M147.945,620.579C195.25,620.926,246.438,609.97,269.837,568.856C293.061,528.05,275.824,478.854,251.44,438.73C228.211,400.508,192.668,367.657,147.945,368.286C104.067,368.904,71.892,403.907,49.377,441.573C26.071,480.563,7.197,527.302,29.108,567.093C51.566,607.878,101.387,620.238,147.945,620.579" fill="rgba(28, 83, 142, 0.4)" class="triangle-float3"></path><path d="M73.49524884798377 839.0459391262121L211.49575299129862 858.4406451678644 230.8904590329509 720.4401410245496 92.88995488963607 701.0454349828973z" fill="rgba(28, 83, 142, 0.4)" class="triangle-float1"></path></g><defs><mask id="SvgjsMask1009"><rect width="500" height="800" fill="#ffffff"></rect></mask><style>
            @keyframes float1 {
                0%{transform: translate(0, 0)}
                50%{transform: translate(-10px, 0)}
                100%{transform: translate(0, 0)}
            }

            .triangle-float1 {
                animation: float1 5s infinite;
            }

            @keyframes float2 {
                0%{transform: translate(0, 0)}
                50%{transform: translate(-5px, -5px)}
                100%{transform: translate(0, 0)}
            }

            .triangle-float2 {
                animation: float2 4s infinite;
            }

            @keyframes float3 {
                0%{transform: translate(0, 0)}
                50%{transform: translate(0, -10px)}
                100%{transform: translate(0, 0)}
            }

            .triangle-float3 {
                animation: float3 6s infinite;
            }
        </style></defs></svg>